<svg xmlns="http://www.w3.org/2000/svg" width="24" height="24" viewBox="0 0 24 24" fill="currentColor">
  <path fill-rule="evenodd" d="M5 4h14a3 3 0 0 1 3 3v10a3 3 0 0 1-3 3H5a3 3 0 0 1-3-3V7a3 3 0 0 1 3-3ZM7 8a1.5 1.5 0 1 0-3 0 1.5 1.5 0 0 0 3 0Zm4.3 0a1.5 1.5 0 1 0-3 0 1.5 1.5 0 0 0 3 0Zm4.4 0a1.5 1.5 0 1 0-3 0 1.5 1.5 0 0 0 3 0ZM20 8a1.5 1.5 0 1 0-3 0 1.5 1.5 0 0 0 3 0ZM7 12a1.5 1.5 0 1 0-3 0 1.5 1.5 0 0 0 3 0Zm4.3 0a1.5 1.5 0 1 0-3 0 1.5 1.5 0 0 0 3 0Zm4.4 0a1.5 1.5 0 1 0-3 0 1.5 1.5 0 0 0 3 0ZM20 12a1.5 1.5 0 1 0-3 0 1.5 1.5 0 0 0 3 0ZM7 16a1.5 1.5 0 1 0-3 0 1.5 1.5 0 0 0 3 0Zm4.3 0a1.5 1.5 0 1 0-3 0 1.5 1.5 0 0 0 3 0Zm4.4 0a1.5 1.5 0 1 0-3 0 1.5 1.5 0 0 0 3 0ZM20 16a1.5 1.5 0 1 0-3 0 1.5 1.5 0 0 0 3 0Z"/>
</svg>
